<svg width="32" height="32" viewBox="0 0 32 32" fill="none" xmlns="http://www.w3.org/2000/svg">
<path d="M25.0001 19C24.1162 18.9995 23.2573 19.2933 22.5588 19.835L19.6701 17.585C19.8882 17.085 20.0005 16.5454 20.0001 16C20.0001 15.9075 20.0001 15.815 19.9901 15.7237L21.6438 15.1725C22.167 15.9794 22.9635 16.5708 23.8872 16.8384C24.8109 17.106 25.8001 17.0318 26.6736 16.6294C27.5471 16.2271 28.2464 15.5235 28.6434 14.6476C29.0404 13.7716 29.1085 12.782 28.8353 11.8599C28.562 10.9378 27.9658 10.1451 27.1556 9.62683C26.3455 9.10858 25.3758 8.89955 24.4241 9.03803C23.4725 9.1765 22.6025 9.65321 21.9737 10.3808C21.3449 11.1085 20.9992 12.0383 21.0001 13C21.0001 13.0925 21.0001 13.185 21.0101 13.2762L19.3563 13.8275C18.9938 13.267 18.4968 12.8062 17.9106 12.487C17.3244 12.1678 16.6676 12.0004 16.0001 12C15.7794 12.0004 15.5591 12.0188 15.3413 12.055L14.4863 10.125C15.2246 9.5351 15.7302 8.70288 15.9135 7.77584C16.0968 6.84879 15.9459 5.88679 15.4877 5.06034C15.0295 4.23388 14.2934 3.59636 13.41 3.26075C12.5266 2.92514 11.5529 2.91313 10.6616 3.22685C9.77015 3.54056 9.01861 4.15974 8.54012 4.97464C8.06163 5.78954 7.88711 6.74753 8.04748 7.67882C8.20784 8.6101 8.69275 9.45453 9.41625 10.0624C10.1397 10.6704 11.0551 11.0025 12.0001 11C12.2208 10.9995 12.4411 10.9811 12.6588 10.945L13.5138 12.87C12.7888 13.4438 12.2856 14.2517 12.0902 15.1555C11.8948 16.0593 12.0193 17.0029 12.4426 17.825L9.22885 20.68C8.42007 20.1348 7.44022 19.9032 6.47293 20.0287C5.50565 20.1543 4.61736 20.6283 3.97456 21.3619C3.33175 22.0955 2.97857 23.0384 2.98122 24.0138C2.98386 24.9892 3.34214 25.9301 3.98891 26.6602C4.63568 27.3903 5.52653 27.8595 6.49448 27.9798C7.46242 28.1001 8.44101 27.8633 9.24682 27.3136C10.0526 26.764 10.6303 25.9394 10.8716 24.9943C11.1129 24.0493 11.0013 23.0486 10.5576 22.18L13.7713 19.325C14.4672 19.7935 15.293 20.0307 16.1314 20.0029C16.9698 19.9751 17.7781 19.6836 18.4413 19.17L21.3301 21.42C21.1127 21.9184 21.0004 22.4562 21.0001 23C21.0001 23.7911 21.2347 24.5645 21.6742 25.2223C22.1137 25.8801 22.7385 26.3928 23.4694 26.6955C24.2003 26.9983 25.0045 27.0775 25.7805 26.9231C26.5564 26.7688 27.2691 26.3878 27.8285 25.8284C28.3879 25.269 28.7689 24.5563 28.9232 23.7803C29.0776 23.0044 28.9984 22.2002 28.6956 21.4693C28.3929 20.7383 27.8802 20.1136 27.2224 19.6741C26.5646 19.2346 25.7912 19 25.0001 19ZM25.0001 11C25.3957 11 25.7823 11.1173 26.1112 11.337C26.4401 11.5568 26.6965 11.8692 26.8479 12.2346C26.9992 12.6001 27.0388 13.0022 26.9617 13.3902C26.8845 13.7781 26.694 14.1345 26.4143 14.4142C26.1346 14.6939 25.7782 14.8844 25.3903 14.9616C25.0023 15.0387 24.6002 14.9991 24.2347 14.8477C23.8693 14.6964 23.5569 14.44 23.3372 14.1111C23.1174 13.7822 23.0001 13.3955 23.0001 13C23.0001 12.4696 23.2108 11.9608 23.5859 11.5858C23.961 11.2107 24.4697 11 25.0001 11ZM10.0001 6.99999C10.0001 6.60442 10.1174 6.21774 10.3372 5.88885C10.5569 5.55995 10.8693 5.3036 11.2347 5.15223C11.6002 5.00085 12.0023 4.96124 12.3903 5.03842C12.7782 5.11559 13.1346 5.30607 13.4143 5.58577C13.694 5.86548 13.8845 6.22184 13.9617 6.60981C14.0388 6.99777 13.9992 7.3999 13.8479 7.76535C13.6965 8.13081 13.4401 8.44316 13.1112 8.66293C12.7823 8.88269 12.3957 8.99999 12.0001 8.99999C11.4697 8.99999 10.961 8.78927 10.5859 8.4142C10.2108 8.03913 10.0001 7.53042 10.0001 6.99999ZM7.0001 26C6.60453 26 6.21785 25.8827 5.88896 25.6629C5.56006 25.4432 5.30371 25.1308 5.15234 24.7654C5.00096 24.3999 4.96136 23.9978 5.03853 23.6098C5.1157 23.2218 5.30618 22.8655 5.58588 22.5858C5.86559 22.3061 6.22195 22.1156 6.60992 22.0384C6.99788 21.9612 7.40001 22.0009 7.76546 22.1522C8.13092 22.3036 8.44327 22.5599 8.66304 22.8888C8.8828 23.2177 9.0001 23.6044 9.0001 24C9.0001 24.5304 8.78938 25.0391 8.41431 25.4142C8.03924 25.7893 7.53053 26 7.0001 26ZM14.0001 16C14.0001 15.6044 14.1174 15.2177 14.3372 14.8888C14.5569 14.5599 14.8693 14.3036 15.2347 14.1522C15.6002 14.0009 16.0023 13.9612 16.3903 14.0384C16.7782 14.1156 17.1346 14.3061 17.4143 14.5858C17.694 14.8655 17.8845 15.2218 17.9617 15.6098C18.0388 15.9978 17.9992 16.3999 17.8479 16.7654C17.6965 17.1308 17.4401 17.4432 17.1112 17.6629C16.7823 17.8827 16.3957 18 16.0001 18C15.4697 18 14.961 17.7893 14.5859 17.4142C14.2108 17.0391 14.0001 16.5304 14.0001 16ZM25.0001 25C24.6045 25 24.2179 24.8827 23.889 24.6629C23.5601 24.4432 23.3037 24.1308 23.1523 23.7654C23.001 23.3999 22.9614 22.9978 23.0385 22.6098C23.1157 22.2218 23.3062 21.8655 23.5859 21.5858C23.8656 21.3061 24.222 21.1156 24.6099 21.0384C24.9979 20.9612 25.4 21.0009 25.7655 21.1522C26.1309 21.3036 26.4433 21.5599 26.663 21.8888C26.8828 22.2177 27.0001 22.6044 27.0001 23C27.0001 23.5304 26.7894 24.0391 26.4143 24.4142C26.0392 24.7893 25.5305 25 25.0001 25Z" fill="#000D3D"/>
</svg>
