<svg width="32" height="32" viewBox="0 0 32 32" fill="none" xmlns="http://www.w3.org/2000/svg">
<g clip-path="url(#clip0_56_571)">
<path d="M23.9632 23.9534L16.9333 21.7393L21.6661 17.0065L23.9632 23.9534Z" fill="#000D3D"/>
<path d="M11.6366 11.6366L16.2406 23.5319C16.3854 23.9123 16.5341 24.1948 16.2726 24.4563L13.8588 26.8701C13.5154 27.2135 13.2279 27.3054 13.0212 26.7513L5.39844 7.36097C5.29062 7.01757 5.20377 6.77499 5.47031 6.50845L6.5125 5.46626C6.77405 5.20471 7.01064 5.29755 7.36403 5.39338L26.7494 13.0132C27.3044 13.2288 27.2076 13.5213 26.8632 13.8657L24.4554 16.2735C24.1938 16.5351 23.9063 16.3913 23.531 16.2416L11.6296 11.6316L11.6366 11.6366Z" fill="#000D3D"/>
</g>
<defs>
<clipPath id="clip0_56_571">
<rect width="32" height="32" fill="white"/>
</clipPath>
</defs>
</svg>
