<svg width="21" height="21" viewBox="0 0 21 21" fill="none" xmlns="http://www.w3.org/2000/svg">
<path d="M0 2C0 0.89543 0.895431 0 2 0H19C20.1046 0 21 0.895431 21 2V19C21 20.1046 20.1046 21 19 21H2C0.89543 21 0 20.1046 0 19V2Z" fill="#5046E5"/>
<path d="M10.5 16C10.22 16 10 15.78 10 15.5V6.5C10 6.22 10.22 6 10.5 6C10.78 6 11 6.22 11 6.5V15.5C11 15.78 10.78 16 10.5 16Z" fill="white"/>
<path d="M14 9.49999C13.9344 9.50079 13.8694 9.48786 13.8091 9.46202C13.7488 9.43619 13.6946 9.39803 13.65 9.34999L10.5 6.19999L7.34999 9.34999C7.14999 9.54999 6.83999 9.54999 6.63999 9.34999C6.43999 9.14999 6.43999 8.83999 6.63999 8.63999L10.14 5.13999C10.34 4.93999 10.65 4.93999 10.85 5.13999L14.35 8.63999C14.55 8.83999 14.55 9.14999 14.35 9.34999C14.25 9.44999 14.12 9.49999 14 9.49999Z" fill="white"/>
</svg>
